<?xml version="1.0" encoding="UTF-8"?>
<!-- Created with Inkscape (http://www.inkscape.org/) -->
<svg width="3531.6" height="1506.8" version="1.1" viewBox="0 0 3531.6 1506.8" xmlns="http://www.w3.org/2000/svg">
 <g transform="translate(-260.51 -461.58)">
  <path d="m3595.6 1967.8c-14.719-2.0464-25.921-5.818-104.85-35.304-153.96-57.512-422.6-165.17-684.71-274.39-19.027-7.9285-29.737-11.898-32.102-11.898-3.0344 0-4.2018 0.7069-8.0562 4.8775-2.4792 2.6826-5.7453 7.1106-7.258 9.84-2.7184 4.9046-2.7473 5.125-2.4799 18.882 0.7757 39.909-8.5169 66.378-31.302 89.164-19.303 19.303-44.061 31.503-77.448 38.164-6.9175 1.3801-13.521 1.7306-33.12 1.7581-21.641 0.031-25.705-0.2148-35.04-2.1128-39.941-8.1208-67.586-26.915-81.567-55.453-12.259-25.023-13.303-55.733-2.9654-87.257 7.6599-23.359 16.918-39.153 31.296-53.389 19.996-19.798 44.988-30.265 77.484-32.451 9.848-0.6624 9.848-0.6624-37.92-20.733-26.272-11.039-50.144-21.145-53.048-22.458-12.264-5.5468-61.349-26.452-65.76-28.008-4.6424-1.6369-31.808-13.136-128.44-54.367-49.535-21.136-50.723-21.499-58.439-17.871-1.9358 0.9102-12.98 10.157-24.542 20.548-21.022 18.893-21.022 18.893-23.143 29.45-11.188 55.694-52.324 90.094-120.16 100.48-5.544 0.8492-19.26 1.7912-30.48 2.0934-20.4 0.5496-20.4 0.5496-20.4 9.8342 0 33.759-24.029 64.434-57.906 73.921-18.381 5.1479-70.872 5.1466-106.46 0-33.759-4.8853-55.4-13.603-83.29-33.552-17.304-12.377-30.235-23.517-51.868-44.683-12.295-12.029-21.661-20.38-24.96-22.254-5.2219-2.9662-13.437-6.2547-18.404-7.3674-1.4104-0.3158-35.538-2.9509-75.84-5.8557-136.49-9.8376-185.29-15.248-250.4-27.762-57.901-11.128-128.91-33.303-177.6-55.464-57.011-25.946-93.327-66.1-109.66-121.25-14.661-49.496-11.88-111.41 7.6106-169.44 12.397-36.908 28.234-64.277 54.835-94.766 12.475-14.298 41.792-42.737 55.541-53.876 4.3131-3.4945 7.6798-6.6162 7.4815-6.937-0.4959-0.8025-95.556 11.252-96.459 12.232-0.3992 0.433-1.2307 5.7429-1.8478 11.8-2.7997 27.477-10.549 47.472-24.952 64.382-19.899 23.361-50.69 37.902-90.658 42.812-23.308 2.8633-59.167 0.7529-83.47-4.9126-47.898-11.166-76.955-36.057-87.791-75.205-2.356-8.511-2.5732-10.778-2.592-27.05-0.0233-20.145 1.001-26.522 7.3042-45.474 10.632-31.968 24.378-49.74 47.466-61.366 14.325-7.2142 28.849-10.342 51.756-11.146 16.32-0.57312 16.32-0.57312-45.12-21.476-33.792-11.497-62.791-20.893-64.443-20.88-4.8274 0.0374-9.1629 2.3556-23.165 12.386-17.067 12.226-18.185 12.761-28.159 13.466-4.5509 0.32179-8.9356 1.1338-9.7436 1.8044-0.9557 0.79315-1.6998 3.8103-2.1292 8.6333-1 11.234-4.0197 24.778-7.4321 33.334-14.34 35.958-48.44 58.557-98.632 65.366-21.049 2.8554-65.994 1.2191-79.737-2.9029-2.376-0.7127-6.48-1.5996-9.12-1.9711-6.3572-0.8943-25.239-7.1339-34.409-11.371-47.412-21.906-66.246-66.176-52.344-123.04 7.2687-29.734 18.74-47.514 39.799-61.688 10.448-7.032 31.148-15.153 43.767-17.171 2.04-0.3262 3.8945-0.89318 4.1212-1.26 0.22667-0.36676-60.155-22.827-134.18-49.912-85.041-31.118-138.03-50.999-143.93-54.004-23.754-12.106-29.062-30.357-18.232-62.687 1.4151-4.224 20.545-45.643 42.511-92.042 30.576-64.585 40.482-84.663 42.255-85.646 3.3425-1.852 14.703-1.7602 16.272 0.13153 1.0222 1.2317-1.988 16.389-17.757 89.406-17.08 79.092-18.88 88.281-17.921 91.484 2.1618 7.2156 4.6976 9.5311 15.481 14.137 5.544 2.3678 12.888 5.0716 16.32 6.0086 3.432 0.937 48.576 14.544 100.32 30.238 297.16 90.129 590.04 177.04 719.88 213.62 59.769 16.839 83.317 22.806 131.16 33.231 45.572 9.9312 100.53 22.077 231.84 51.235 35.904 7.9729 69.938 15.779 75.631 17.347 12.035 3.3144 146.65 51.094 162.45 57.657 16.567 6.8836 17.009 6.9713 35.04 6.9391 9.24-0.016 28.852-0.5239 43.581-1.1278 54.733-2.2437 114.61-1.1946 156.1 2.7352 46.494 4.4038 115.1 7.6185 123.31 5.7783 6.2513-1.4009 11.495-4.2405 15.606-8.4512 1.9119-1.9581 62.514-98.168 134.67-213.8 120.54-193.17 131.03-210.31 129.2-211.05-1.0945-0.44823-102.86-33.065-226.15-72.482-224.16-71.667-224.16-71.667-224.44-78.625-0.1551-3.8269-0.04-6.958 0.2549-6.958 0.6505 0 475.52 114.08 477.78 114.78 1.2223 0.378 4.1415-3.587 12.48-16.951 12.031-19.282 15.443-23.36 22.454-26.836 3.9906-1.9785 6.1329-2.3533 13.391-2.3424 11.822 0.0177 20.648 2.3989 35.587 9.602 20.52 9.8942 32.394 20.817 46.945 43.185 6.0674 9.327 15.136 27.792 21.123 43.012 4.3565 11.074 6.3693 14.965 9.1798 17.746 3.0958 3.0632 43.431 21.062 288.1 128.56 259.44 113.99 284.5 125.2 284.5 127.2 0 2.068-0.4247 2.2155-7.2 2.4996-3.96 0.16608-9.7327-0.18922-12.828-0.7896-4.5327-0.87917-565.67-223.45-570.91-226.44-1.1241-0.64308-4.9805 1.7546-15.54 9.6617-14.045 10.517-14.045 10.517-146.1 222.05-72.628 116.34-132.48 212.65-133 214.02-2.5144 6.6136 1.5677 12.851 12.597 19.249 41.039 23.804 55.365 63.114 43.9 120.46-2.1999 11.004-7.8024 29.304-12.34 40.307-3.3474 8.1178-3.5723 10.573-1.2301 13.429 4.9509 6.0353 220.77 103.54 454.32 205.25 273.04 118.91 858.63 367.95 865.19 367.95 1.9381 0 11.417-12.823 61.92-83.76 32.797-46.068 60.182-84.3 60.854-84.96s3.1305-1.2 5.4624-1.2c3.882 0 4.2043 0.1823 3.818 2.16-0.2321 1.188-32.915 47.588-72.628 103.11-76.862 107.46-74.724 104.74-87.132 111.02-9.6507 4.8903-24.631 7.1199-36.63 5.4516zm-987.64-199.27c20.045-5.1071 38.552-20.579 48.131-40.238 6.4675-13.272 8.3229-21.512 8.3229-36.96 0-10.216-0.4353-14.586-2.0563-20.64-6.0801-22.707-21.398-41.947-40.893-51.364-11.175-5.3978-18.308-7.0303-30.72-7.0303-12.412 0-19.545 1.6325-30.72 7.0303-19.495 9.4166-34.813 28.657-40.893 51.364-1.6209 6.0541-2.0563 10.424-2.0563 20.64 0 15.448 1.8554 23.688 8.3229 36.96 10.929 22.428 31.504 37.863 55.746 41.82 6.3717 1.04 19.582 0.2605 26.815-1.5822zm-570.11-222.24c23.899-4.3934 45.867-23.01 56.068-47.514 7.868-18.9 8.9258-42.768 2.7407-61.839-8.2724-25.507-25.971-43.99-50.233-52.46-7.0419-2.4582-8.8366-2.6809-21.6-2.6809-12.748 0-14.566 0.225-21.6 2.673-25.458 8.8606-44.214 29.605-51.47 56.927-3.0203 11.374-3.4834 29.006-1.0682 40.67 6.6855 32.284 30.081 57.498 59.258 63.861 7.1931 1.569 20.406 1.7402 27.904 0.3619zm-667.68-387.79c1.727-0.9243 1.8569-2.1663 1.8569-17.76 0-9.2214-0.108-16.775-0.24-16.786-0.132-0.011-10.155-1.7078-22.273-3.7704-22.596-3.8461-25.464-3.8749-25.506-0.2557-0.01 0.9054-0.6499 7.4783-1.4209 14.606-2.2495 20.797-3.1541 18.588 8.6303 21.073 16.982 3.5809 35.147 4.93 38.953 2.893zm-64.984-9.5203c1.3223-0.5027 2.8472-1.7422 3.389-2.7542 0.9062-1.6934 4.8918-25.262 4.8918-28.928 0-3.553-2.5463-4.9183-15.361-8.2364-10.792-2.7943-38.63-11.765-44.277-14.268-1.2161-0.539-3.7979 2.4774-11.768 13.75-5.6158 7.9423-10.275 15.203-10.354 16.136-0.2896 3.4221 0.1989 4.8434 1.8407 5.3547 0.924 0.2877 7.512 2.5318 14.64 4.9868 10.061 3.4653 50.475 14.574 53.938 14.826 0.3617 0.026 1.7394-0.3635 3.0617-0.8662zm-77.272-41.558c6.9263-8.0477 12.593-15.386 12.593-16.306 0-1.0922-2.0851-2.72-6-4.6843-3.3-1.6556-10.406-5.5767-15.791-8.7134-9.7911-5.7032-9.7911-5.7032-25.44 7.4886-8.6069 7.2555-15.818 13.32-16.026 13.476-1.6121 1.218 11.288 9.961 26.188 17.749 5.868 3.0672 10.942 5.5869 11.276 5.5993 0.3336 0.013 6.2736-6.562 13.2-14.61zm-290.34 6.0059c24.734-6.3258 44.523-26.65 53.015-54.449 2.3404-7.661 2.5798-9.8703 2.5798-23.805 0-13.931-0.2398-16.145-2.5775-23.797-6.0243-19.719-16.852-34.995-31.655-44.658-16.805-10.97-32.72-13.741-52.757-9.1832-22.972 5.2249-42.722 22.605-51.453 45.278-14.562 37.816-1.5521 81.116 30.62 101.91 15.039 9.7203 35.149 13.071 52.228 8.7034zm248.2-32.998c8.4567-6.7895 15.376-12.821 15.376-13.404 0-1.5684-7.8577-9.2917-9.4534-9.2917-3.0384 0-28.947 24.346-28.947 27.202 0 2.0313 5.5618 8.5486 6.9051 8.0913 0.4087-0.1392 7.6623-5.8081 16.119-12.598zm-611.3-94.175c19.109-4.0497 36.422-18.741 46.37-39.348 6.7701-14.024 8.5488-22.324 8.5488-39.893 0-16.287-1.3436-23.421-6.99-37.114-6.6143-16.04-19.22-30.068-33.023-36.749-18.586-8.9962-36.216-8.9996-55.05-0.0106-6.8418 3.2655-9.8964 5.4922-16.225 11.828-15.074 15.091-22.912 33.247-24.17 55.99-1.6776 30.332 8.9914 56.633 29.475 72.661 15.532 12.153 32.975 16.469 51.064 12.635z" stroke-width=".96"/>
 </g>
</svg>
